# xmcd
#
# Track frame offsets: 
#        150
#        14768
#        59715
#        95510
#        136710
#        162195
#        177025
#        193183
#        211433
#        231583
#        262110
#        288068
#        304413
#
# Disc length: 4615 seconds
#
# Revision: 0
# Processed by: cddbd v1.5.2PL0 Copyright (c) Steve Scherf et al.
# Submitted via: ExactAudioCopy v1.0b1
#
DISCID=c512050d
DTITLE=Eric Parkin - Bax: Piano works [CD 4 of 4)
DYEAR=1996
DGENRE=Piano
TTITLE0=Whirligig, piano 
TTITLE1=What the Minstrel Told Us, piano
TTITLE2=Legend, piano 
TTITLE3=Dream in Exile: Intermezzo, piano
TTITLE4=A Mountain Mood, piano 
TTITLE5=Mediterranean, piano
TTITLE6=Serpent Dance, piano 
TTITLE7=Ceremonial Dance, piano 
TTITLE8=The Slave Girl, piano 
TTITLE9=In the Night, piano 
TTITLE10=Toccata, piano 
TTITLE11=Paean, piano 
TTITLE12=Sonata, piano, B-Flat Major 'Salzburg'   Lento espressivo 
EXTD=
EXTT0=
EXTT1=
EXTT2=
EXTT3=
EXTT4=
EXTT5=
EXTT6=
EXTT7=
EXTT8=
EXTT9=
EXTT10=
EXTT11=
EXTT12=
PLAYORDER=
